<svg width="20" height="20" viewBox="0 0 20 20" fill="none" xmlns="http://www.w3.org/2000/svg">
<path d="M9.99992 12.5V14.1667M4.99992 17.5H14.9999C15.4419 17.5 15.8659 17.3244 16.1784 17.0118C16.491 16.6993 16.6666 16.2754 16.6666 15.8333V10.8333C16.6666 10.3913 16.491 9.96738 16.1784 9.65482C15.8659 9.34226 15.4419 9.16667 14.9999 9.16667H4.99992C4.55789 9.16667 4.13397 9.34226 3.82141 9.65482C3.50885 9.96738 3.33325 10.3913 3.33325 10.8333V15.8333C3.33325 16.2754 3.50885 16.6993 3.82141 17.0118C4.13397 17.3244 4.55789 17.5 4.99992 17.5ZM13.3333 9.16667V5.83333C13.3333 4.94928 12.9821 4.10143 12.3569 3.47631C11.7318 2.85119 10.884 2.5 9.99992 2.5C9.11586 2.5 8.26802 2.85119 7.6429 3.47631C7.01777 4.10143 6.66659 4.94928 6.66659 5.83333V9.16667H13.3333Z" stroke="#6B8AF5" stroke-width="1.66667" stroke-linecap="round" stroke-linejoin="round"/>
</svg>
