<svg width="39" height="19" viewBox="0 0 39 19" fill="none" xmlns="http://www.w3.org/2000/svg">
<path d="M17.2578 0.120401C16.2617 0.26833 15.6206 0.465565 14.8908 0.889624C14.8119 0.92907 14.6739 0.998102 14.595 1.03755C14.3681 1.13617 13.6975 1.66871 13.303 2.05332C12.5732 2.77323 11.9518 3.81858 11.6067 4.90338C11.3108 5.84025 11.3108 7.96054 11.6067 8.80866C11.9913 9.88359 12.1392 10.1597 12.7803 11.0276C13.5594 12.0729 14.378 12.6548 15.9264 13.2958C16.8436 13.6705 20.0192 13.848 20.7195 13.5522C21.7057 13.138 21.9522 11.8954 21.2027 11.1755C20.8378 10.8205 20.394 10.7416 18.8851 10.7317C17.4452 10.7218 16.952 10.6232 16.1729 10.1794C15.5023 9.78497 15.0979 9.37078 14.6837 8.61142C14.378 8.0493 14.3681 7.9704 14.3583 6.93491C14.3484 6.05721 14.3878 5.76136 14.5456 5.40633C14.9303 4.52863 15.6995 3.71996 16.5181 3.33535C17.8298 2.72392 21.469 2.84226 24.408 3.60162C26.3015 4.08485 28.6093 5.02172 29.8322 5.81067C29.9999 5.90928 30.1971 6.02763 30.276 6.06707C30.493 6.17555 31.6469 6.9645 32.2485 7.428C32.9487 7.9704 33.1558 8.14791 33.9054 8.87769C34.6253 9.58774 34.6845 9.42009 33.3235 10.6824C32.9783 11.0078 32.3373 11.5009 31.0059 12.4772C30.8185 12.6153 30.5226 12.8027 30.3254 12.9013C30.2169 12.9605 29.9999 13.0887 29.8322 13.1873C29.6744 13.2958 29.349 13.4733 29.1222 13.5916C28.809 13.755 28.5647 13.7942 28.3036 14.4891C28.2173 14.7187 28.2345 14.8441 27.7809 15.8401C27.6823 16.0669 27.3962 16.5502 27.1595 16.9052C26.7157 17.5758 26.6862 17.7829 27.0511 17.6843C28.057 17.4082 30.5029 16.2642 31.6075 15.5541C31.7751 15.4555 31.9724 15.3372 32.0513 15.2977C32.5247 15.0709 34.3886 13.6903 35.148 12.9999C36.3808 11.8954 38.3631 9.74553 38.3631 9.51871C38.3631 9.1834 36.1441 6.84616 34.5859 5.5444C33.7081 4.80476 32.2485 3.76927 31.6075 3.43397C31.499 3.3748 31.1439 3.17756 30.8185 2.99019C30.493 2.80281 30.1577 2.6253 30.0788 2.58585C29.9999 2.55627 29.8618 2.48724 29.7829 2.43793C29.704 2.38862 29.566 2.31958 29.4871 2.29C29.4082 2.26041 29.1813 2.1618 28.9939 2.07304C28.8066 1.99415 28.5205 1.86594 28.3529 1.79691C28.1951 1.73774 27.8894 1.60954 27.6823 1.52078C27.4751 1.43202 27.2483 1.36299 27.1694 1.36299C27.0905 1.36299 26.8834 1.30382 26.7059 1.22492C25.5619 0.751558 23.0371 0.248606 20.9561 0.0809536C19.2993 -0.0373878 18.3722 -0.0275249 17.2578 0.120401Z" fill="black"/>
<path d="M11.2924 1.33362C11.0853 1.37306 10.5231 1.58016 9.96095 1.82671C9.77356 1.9056 9.48755 2.03381 9.3199 2.10284C8.63939 2.38883 7.31784 3.07916 6.75569 3.44405C6.59789 3.54266 6.39079 3.66101 6.31189 3.70045C6.00616 3.84838 4.75364 4.73594 3.94493 5.37696C2.52475 6.51107 0 9.14417 0 9.4992C0 9.69643 0.927058 10.7812 2.06123 11.9153C3.10663 12.9508 5.55249 14.9725 5.76946 14.9725C5.79905 14.9725 5.97657 15.081 6.14423 15.2092C6.32175 15.3374 6.69652 15.5741 6.98252 15.722C7.27839 15.8798 7.78137 16.1559 8.11669 16.3334C8.68871 16.6391 9.87219 17.152 10.7992 17.507C11.0162 17.5859 11.3417 17.7141 11.5192 17.793C11.6967 17.8719 11.9137 17.931 11.9926 17.931C12.0813 17.931 12.3575 18.0001 12.6139 18.079C15.1091 18.8581 18.9652 19.2131 21.1547 18.8679C22.9989 18.5819 24.2909 17.8522 25.4448 16.4814C26.7072 14.9626 27.2595 12.8917 26.9143 10.9883C26.4803 8.6215 24.7347 6.52093 22.5453 5.74185C21.4308 5.34737 18.6201 5.16 17.7423 5.41641C16.7265 5.72212 16.3912 7.05347 17.1407 7.81283C17.5253 8.2073 17.7916 8.26647 19.4288 8.26647C20.7602 8.26647 21.4012 8.39467 22.062 8.76942C23.0976 9.36113 23.7189 10.2092 24.0049 11.4321C24.1726 12.1422 24.1726 12.2112 24.0049 12.9114C23.7781 13.8877 23.2751 14.6668 22.5354 15.219C21.9437 15.6628 21.707 15.7713 21.1054 15.9192C20.0501 16.1756 16.7265 16.0474 15.3655 15.7023C15.0499 15.6234 14.7047 15.5642 14.5962 15.5642C14.399 15.5642 14.0933 15.4853 12.8703 15.1106C11.8644 14.795 10.9866 14.4498 9.81301 13.868C8.78733 13.3749 8.71829 13.3256 8.00821 12.8719C7.77151 12.724 7.5644 12.6057 7.53481 12.6057C7.51509 12.6057 7.02197 12.2506 6.44996 11.8266C5.26648 10.9292 4.21121 10.012 4.0041 9.69643C3.86603 9.48934 3.87589 9.44989 4.17176 9.13431C4.75364 8.50315 7.34743 6.39273 7.53481 6.39273C7.5644 6.39273 7.77151 6.27438 8.00821 6.1166C8.66898 5.7024 8.78733 5.63337 9.34948 5.35724C9.63549 5.21917 9.88205 5.05152 9.90177 4.98249C10.1779 3.92727 10.7302 2.71427 11.2628 1.99436C11.6178 1.52099 11.7263 1.25472 11.5685 1.27445C11.5192 1.28431 11.4008 1.30403 11.2924 1.33362Z" fill="black"/>
</svg>
