<svg width="16" height="16" viewBox="0 0 16 16" fill="none" xmlns="http://www.w3.org/2000/svg">
<g clip-path="url(#clip0_130_309)">
<path d="M7.3446 1.87581C7.37316 1.72287 7.45431 1.58475 7.57399 1.48535C7.69368 1.38595 7.84435 1.33154 7.99993 1.33154C8.1555 1.33154 8.30618 1.38595 8.42586 1.48535C8.54555 1.58475 8.6267 1.72287 8.65526 1.87581L9.35593 5.58114C9.40569 5.84457 9.53371 6.08688 9.72328 6.27645C9.91285 6.46602 10.1552 6.59404 10.4186 6.64381L14.1239 7.34447C14.2769 7.37304 14.415 7.45419 14.5144 7.57387C14.6138 7.69355 14.6682 7.84423 14.6682 7.99981C14.6682 8.15538 14.6138 8.30606 14.5144 8.42574C14.415 8.54542 14.2769 8.62657 14.1239 8.65514L10.4186 9.35581C10.1552 9.40557 9.91285 9.53359 9.72328 9.72316C9.53371 9.91273 9.40569 10.155 9.35593 10.4185L8.65526 14.1238C8.6267 14.2767 8.54555 14.4149 8.42586 14.5143C8.30618 14.6137 8.1555 14.6681 7.99993 14.6681C7.84435 14.6681 7.69368 14.6137 7.57399 14.5143C7.45431 14.4149 7.37316 14.2767 7.3446 14.1238L6.64393 10.4185C6.59416 10.155 6.46614 9.91273 6.27658 9.72316C6.08701 9.53359 5.84469 9.40557 5.58126 9.35581L1.87593 8.65514C1.723 8.62657 1.58487 8.54542 1.48547 8.42574C1.38608 8.30606 1.33167 8.15538 1.33167 7.99981C1.33167 7.84423 1.38608 7.69355 1.48547 7.57387C1.58487 7.45419 1.723 7.37304 1.87593 7.34447L5.58126 6.64381C5.84469 6.59404 6.08701 6.46602 6.27658 6.27645C6.46614 6.08688 6.59416 5.84457 6.64393 5.58114L7.3446 1.87581Z" stroke="white" stroke-width="1.33333" stroke-linecap="round" stroke-linejoin="round"/>
<path d="M13.3334 1.3335V4.00016" stroke="white" stroke-width="1.33333" stroke-linecap="round" stroke-linejoin="round"/>
<path d="M14.6667 2.6665H12" stroke="white" stroke-width="1.33333" stroke-linecap="round" stroke-linejoin="round"/>
<path d="M2.66671 14.6667C3.40309 14.6667 4.00004 14.0697 4.00004 13.3333C4.00004 12.597 3.40309 12 2.66671 12C1.93033 12 1.33337 12.597 1.33337 13.3333C1.33337 14.0697 1.93033 14.6667 2.66671 14.6667Z" stroke="white" stroke-width="1.33333" stroke-linecap="round" stroke-linejoin="round"/>
</g>
<defs>
<clipPath id="clip0_130_309">
<rect width="16" height="16" fill="white"/>
</clipPath>
</defs>
</svg>
